<?xml version="1.0" encoding="utf-8"?><svg viewBox="0 0 64 64" xmlns="http://www.w3.org/2000/svg" xmlns:xlink="http://www.w3.org/1999/xlink"><style>:root>svg{display:none}:root>svg:target{display:block}</style><svg fill="none" viewBox="0 0 24 24" id="arrow" xmlns="http://www.w3.org/2000/svg"><path d="m7 9 5 5 5-5"/></svg><svg fill="none" viewBox="0 0 48 48" id="certificate" xmlns="http://www.w3.org/2000/svg"><path fill="#000" fill-rule="evenodd" d="M39.754 9.39a.792.792 0 0 0-.017-.152.976.976 0 0 0-.032-.117l-.01-.028a1.042 1.042 0 0 0-.047-.107l-.003-.005a.913.913 0 0 0-.065-.103c-.005-.009-.012-.017-.018-.025a.946.946 0 0 0-.081-.095L30.997.275a.946.946 0 0 0-.094-.082l-.026-.018a.888.888 0 0 0-.102-.065l-.007-.003a.985.985 0 0 0-.25-.09h-.002a.992.992 0 0 0-.119-.014L30.367 0H9.094a.937.937 0 0 0-.938.937v40.128c0 .517.42.937.938.937h14.114v5.06a.938.938 0 0 0 1.436.795l3.57-2.24 3.571 2.24a.939.939 0 0 0 1.436-.795v-5.06h5.597c.517 0 .937-.42.937-.937V9.42l-.001-.032ZM31.272 3.2l5.282 5.283h-5.282V3.2Zm-8.526 25.756c-.066-.18-.173-.472-.176-.592.073-.09.327-.251.483-.35.334-.21.713-.45.987-.824.277-.379.39-.815.49-1.2.043-.17.114-.441.174-.544.033-.007.102-.017.232-.017.104 0 .221.006.345.012.142.007.289.014.442.014.337 0 .61-.038.857-.12.432-.144.777-.422 1.082-.667.168-.136.45-.363.548-.376.108.014.39.24.558.376.304.245.65.523 1.082.667.247.082.52.12.857.12.153 0 .3-.007.441-.014.124-.006.241-.012.346-.012.13 0 .199.01.232.017.06.103.13.375.174.543.1.386.212.822.49 1.2.274.375.652.614.987.825.155.099.41.26.482.35-.002.12-.11.413-.175.592-.14.38-.297.81-.297 1.287 0 .477.157.908.297 1.288.066.18.173.472.175.592-.073.09-.327.25-.482.35-.335.21-.713.45-.988.824-.277.378-.39.815-.49 1.2-.043.169-.113.441-.173.544a1.169 1.169 0 0 1-.232.017c-.105 0-.222-.006-.346-.012-.141-.007-.288-.015-.44-.015-.339 0-.611.039-.858.12-.432.144-.778.423-1.082.668-.166.134-.443.356-.553.376-.11-.02-.387-.242-.553-.376-.305-.245-.65-.524-1.082-.667a2.657 2.657 0 0 0-.857-.12c-.153 0-.3.007-.442.014-.123.006-.24.012-.345.012-.13 0-.199-.01-.232-.017-.06-.103-.13-.375-.174-.544-.1-.385-.213-.822-.49-1.2-.274-.374-.653-.614-.987-.825-.155-.098-.41-.259-.483-.35.003-.119.11-.412.176-.59.14-.38.297-.811.297-1.288 0-.478-.158-.909-.297-1.288Zm8.6 16.41-2.633-1.651a.94.94 0 0 0-.997 0l-2.633 1.652V36.93l.293-.011c.124-.007.24-.013.347-.013.166 0 .237.015.264.025.112.037.327.21.5.349.437.352.981.79 1.728.79.746 0 1.29-.438 1.728-.79.173-.14.387-.312.499-.35a.929.929 0 0 1 .265-.024c.106 0 .223.006.347.013.095.004.193.008.292.01v8.438Zm1.875-5.24v-3.952c.279-.378.395-.827.494-1.207.051-.2.122-.474.187-.561.064-.088.302-.239.476-.349.462-.291 1.036-.654 1.264-1.34.225-.678-.01-1.317-.198-1.832-.086-.233-.183-.497-.183-.642 0-.144.097-.409.183-.642.189-.514.423-1.154.198-1.831-.228-.686-.803-1.049-1.264-1.34-.174-.11-.412-.261-.476-.348-.065-.088-.136-.362-.187-.562-.135-.522-.303-1.171-.877-1.593-.457-.334-.986-.373-1.345-.373a8.33 8.33 0 0 0-.44.015 7.217 7.217 0 0 1-.346.012.92.92 0 0 1-.265-.025c-.111-.037-.326-.21-.498-.349-.438-.352-.983-.79-1.73-.79-.745 0-1.29.438-1.728.79-.172.139-.387.312-.498.35a.922.922 0 0 1-.265.024c-.106 0-.223-.006-.348-.013a8.713 8.713 0 0 0-.439-.014c-.358 0-.887.039-1.344.373-.575.422-.743 1.071-.877 1.593-.052.2-.123.474-.187.561-.064.088-.303.239-.477.348-.461.292-1.035.655-1.263 1.34-.226.678.009 1.318.197 1.832.086.233.183.498.183.642 0 .145-.097.41-.183.643-.188.514-.423 1.154-.197 1.831.228.686.802 1.049 1.263 1.34.175.11.413.261.477.349.064.087.135.36.187.56.098.381.215.83.494 1.208v3.952H10.03V1.875h19.366v7.546c0 .518.42.938.937.938h7.546v29.768H33.22Z" clip-rule="evenodd"/><path fill="#000" fill-rule="evenodd" d="M13.675 10.359h12.078a.938.938 0 0 0 0-1.875H13.675a.937.937 0 1 0 0 1.875Zm20.667 2.857H13.675a.937.937 0 1 0 0 1.875H34.34a.937.937 0 1 0 0-1.875Zm-3.751 4.732H13.675a.938.938 0 0 0 0 1.875H30.59a.937.937 0 1 0 0-1.875Zm3.751 0a.94.94 0 0 0-.938.938.94.94 0 0 0 .938.937.94.94 0 0 0 .937-.938.94.94 0 0 0-.938-.937Z" clip-rule="evenodd"/></svg><svg fill="none" viewBox="0 0 14 10" id="check" xmlns="http://www.w3.org/2000/svg"><path d="m1.167 4.583 3.75 3.75 7.5-7.5" stroke="#000" stroke-width="1.8"/></svg><svg viewBox="0 0 64 64" id="click" xmlns="http://www.w3.org/2000/svg"><g clip-path="url(#da)"><path d="M63.45 52.844 52.638 42.031l5.304-5.303a1.875 1.875 0 0 0-.733-3.105l-31.82-10.607a1.875 1.875 0 0 0-2.372 2.372l10.607 31.82a1.875 1.875 0 0 0 3.105.733l5.303-5.303L52.844 63.45a1.872 1.872 0 0 0 2.652 0l7.955-7.955a1.875 1.875 0 0 0 0-2.652Zm-9.28 6.63L43.356 48.66a1.875 1.875 0 0 0-2.651 0l-4.484 4.484L27.76 27.76l25.384 8.461-4.484 4.484a1.875 1.875 0 0 0 0 2.652L59.473 54.17l-5.303 5.303ZM24.375 15c1.035 0 1.875-.84 1.875-1.875V1.875a1.875 1.875 0 0 0-3.75 0v11.25c0 1.036.84 1.875 1.875 1.875ZM9.79 7.14a1.875 1.875 0 1 0-2.65 2.65l7.954 7.956a1.875 1.875 0 1 0 2.652-2.652L9.79 7.14Zm5.304 23.864L7.14 38.96a1.875 1.875 0 0 0 2.652 2.652l7.955-7.955a1.875 1.875 0 0 0-2.652-2.652Zm18.562-13.258L41.61 9.79a1.875 1.875 0 0 0-2.652-2.652l-7.955 7.955a1.875 1.875 0 1 0 2.652 2.652ZM15 24.375c0-1.035-.84-1.875-1.875-1.875H1.875a1.875 1.875 0 0 0 0 3.75h11.25c1.036 0 1.875-.84 1.875-1.875Z"/><g clip-path="url(#db)"><path d="M174.456 87.506c-9.7-10.1-21.4-15.5-33.8-15.5-12.3 0-24.1 5.3-34.2 15.4l-31.6 31.5c-2.6-1.4-5.2-2.7-7.7-4-3.6-1.8-7-3.5-9.9-5.3-29.6-18.8-56.5-43.3-82.3-75-12.5-15.8-20.9-29.1-27-42.6 8.2-7.5 15.8-15.3 23.2-22.8 2.8-2.8 5.6-5.7 8.4-8.5 21-21 21-48.2 0-69.2l-27.3-27.3c-3.1-3.1-6.3-6.3-9.3-9.5-6-6.2-12.3-12.6-18.8-18.6-9.7-9.6-21.3-14.7-33.5-14.7s-24 5.1-34 14.7l-.2.2-34 34.3c-12.8 12.8-20.1 28.4-21.7 46.5-2.4 29.2 6.2 56.4 12.8 74.2 16.2 43.7 40.4 84.2 76.5 127.6 43.8 52.3 96.5 93.6 156.7 122.7 23 10.9 53.7 23.8 88 26 2.1.1 4.3.2 6.3.2 23.1 0 42.5-8.3 57.7-24.8.1-.2.3-.3.4-.5 5.2-6.3 11.2-12 17.5-18.1 4.3-4.1 8.7-8.4 13-12.9 9.9-10.3 15.1-22.3 15.1-34.6 0-12.4-5.3-24.3-15.4-34.3l-54.9-55.1Zm35.8 105.3c-.1 0-.1.1 0 0-3.9 4.2-7.9 8-12.2 12.2-6.5 6.2-13.1 12.7-19.3 20-10.1 10.8-22 15.9-37.6 15.9-1.5 0-3.1 0-4.6-.1-29.7-1.9-57.3-13.5-78-23.4-56.6-27.4-106.3-66.3-147.6-115.6-34.1-41.1-56.9-79.1-72-119.9-9.3-24.9-12.7-44.3-11.2-62.6 1-11.7 5.5-21.4 13.8-29.7l34.1-34.1c4.9-4.6 10.1-7.1 15.2-7.1 6.3 0 11.4 3.8 14.6 7l.3.3c6.1 5.7 11.9 11.6 18 17.9 3.1 3.2 6.3 6.4 9.5 9.7l27.3 27.3c10.6 10.6 10.6 20.4 0 31-2.9 2.9-5.7 5.8-8.6 8.6-8.4 8.6-16.4 16.6-25.1 24.4-.2.2-.4.3-.5.5-8.6 8.6-7 17-5.2 22.7l.3.9c7.1 17.2 17.1 33.4 32.3 52.7l.1.1c27.6 34 56.7 60.5 88.8 80.8 4.1 2.6 8.3 4.7 12.3 6.7 3.6 1.8 7 3.5 9.9 5.3.4.2.8.5 1.2.7 3.4 1.7 6.6 2.5 9.9 2.5 8.3 0 13.5-5.2 15.2-6.9l34.2-34.2c3.4-3.4 8.8-7.5 15.1-7.5 6.2 0 11.3 3.9 14.4 7.3l.2.2 55.1 55.1c10.3 10.2 10.3 20.7.1 31.3Zm-154.2-286.1c26.2 4.4 50 16.8 69 35.8 19 19 31.3 42.8 35.8 69 1.1 6.6 6.8 11.2 13.3 11.2.8 0 1.5-.1 2.3-.2 7.4-1.2 12.3-8.2 11.1-15.6-5.4-31.7-20.4-60.6-43.3-83.5s-51.8-37.9-83.5-43.3c-7.4-1.2-14.3 3.7-15.6 11-1.3 7.3 3.5 14.4 10.9 15.6Zm217.2 96.3c-8.9-52.2-33.5-99.7-71.3-137.5s-85.3-62.4-137.5-71.3c-7.3-1.3-14.2 3.7-15.5 11-1.2 7.4 3.7 14.3 11.1 15.6 46.6 7.9 89.1 30 122.9 63.7 33.8 33.8 55.8 76.3 63.7 122.9 1.1 6.6 6.8 11.2 13.3 11.2.8 0 1.5-.1 2.3-.2 7.3-1.1 12.3-8.1 11-15.4Z"/></g></g><defs><clipPath id="da"><path fill="#fff" d="M0 0h64v64H0z"/></clipPath><clipPath id="db"><path fill="#fff" d="M0 0h473.806v473.806H0z" transform="translate(-200 -206)"/></clipPath></defs></svg><svg fill="none" viewBox="0 0 52 52" id="clock" xmlns="http://www.w3.org/2000/svg"><g clip-path="url(#ea)" fill="#000"><path d="M26.018 51.066h-.002C12.197 51.066.953 39.82.951 26 .951 12.18 12.194.936 26.015.936S51.08 12.18 51.08 26c0 13.822-11.242 25.066-25.061 25.066Zm-.003-48.13C13.297 2.936 2.951 13.283 2.951 26c.001 12.718 10.348 23.066 23.066 23.066h.002c12.715 0 23.06-10.347 23.06-23.066 0-12.717-10.346-23.064-23.064-23.064Z"/><path d="M26.018 43.75h-.002c-9.786 0-17.75-7.963-17.75-17.75 0-9.787 7.962-17.75 17.75-17.75 9.787 0 17.75 7.963 17.75 17.75 0 9.787-7.962 17.75-17.748 17.75Zm-.003-33.5c-8.684 0-15.75 7.066-15.75 15.75.002 8.685 7.067 15.75 15.752 15.75h.001c8.683 0 15.748-7.066 15.748-15.75 0-8.684-7.066-15.75-15.75-15.75Z"/><path d="M26.015 29.117a3.1 3.1 0 0 1-2.203-.91 3.123 3.123 0 0 1 0-4.411 3.096 3.096 0 0 1 2.203-.913 3.09 3.09 0 0 1 2.204.914 3.123 3.123 0 0 1 0 4.409 3.096 3.096 0 0 1-2.204.911Zm0-4.234a1.12 1.12 0 0 0-.789 1.91c.419.418 1.157.42 1.579-.002a1.12 1.12 0 0 0 0-1.582 1.11 1.11 0 0 0-.79-.326Z"/><path d="M27.512 25.503a1 1 0 0 1-.707-1.707l6.902-6.901a1 1 0 1 1 1.414 1.414l-6.902 6.901a.995.995 0 0 1-.707.293Zm-3.004-.01a.996.996 0 0 1-.707-.293l-5.125-5.125a1 1 0 0 1 1.414-1.415l5.125 5.126a1 1 0 0 1-.707 1.707Z"/></g><defs><clipPath id="ea"><path fill="#fff" d="M0 0h52v52H0z"/></clipPath></defs></svg><svg viewBox="0 0 64 64" id="gas" xmlns="http://www.w3.org/2000/svg"><g clip-path="url(#fa)"><path d="M58.382 11.374v-3.75H28.919V0H12.987v7.624H5.618v3.75h3.295V60.25H5.618V64h52.764v-3.75h-3.295V11.374h3.295ZM16.737 3.75h8.432v3.874h-8.432V3.75Zm34.6 44.336H12.663V23.539h38.674v24.547ZM12.663 60.25v-8.414h38.674v8.414H12.663Zm38.674-40.461H12.663v-8.415h38.674v8.415Z"/><path d="M32 43.795a6.542 6.542 0 0 0 6.535-6.534c0-4.08-4.762-8.337-5.305-8.81L32 27.381l-1.23 1.07c-.543.473-5.305 4.73-5.305 8.81A6.542 6.542 0 0 0 32 43.795Zm-.005-11.308c.277.296.579.636.88 1.007 1.214 1.49 1.91 2.863 1.91 3.767A2.788 2.788 0 0 1 32 40.046a2.788 2.788 0 0 1-2.784-2.785c0-1.309 1.382-3.273 2.78-4.774Z"/></g><defs><clipPath id="fa"><path fill="#fff" d="M0 0h64v64H0z"/></clipPath></defs></svg><svg fill="none" viewBox="0 0 61 16" id="long-arrow" xmlns="http://www.w3.org/2000/svg"><path stroke="#098FCF" stroke-width="2" d="M0 8h59m0 0-7-7m7 7-7 7"/></svg><svg viewBox="0 0 64 64" id="phone" xmlns="http://www.w3.org/2000/svg"><g clip-path="url(#ia)"><path d="M50.58 39.646c-1.31-1.365-2.89-2.094-4.565-2.094-1.662 0-3.256.716-4.62 2.08l-4.268 4.255c-.352-.189-.703-.365-1.04-.54a17.105 17.105 0 0 1-1.338-.716c-3.998-2.54-7.632-5.849-11.117-10.13-1.688-2.135-2.823-3.932-3.647-5.755 1.108-1.013 2.135-2.067 3.134-3.08.378-.378.757-.77 1.135-1.148 2.836-2.837 2.836-6.51 0-9.347l-3.688-3.688c-.418-.419-.85-.85-1.256-1.283a63.796 63.796 0 0 0-2.54-2.513c-1.31-1.296-2.877-1.985-4.524-1.985-1.648 0-3.242.689-4.593 1.985l-.027.027-4.593 4.634c-1.729 1.729-2.715 3.836-2.93 6.28-.325 3.945.837 7.619 1.728 10.023 2.188 5.903 5.457 11.374 10.333 17.236C18.081 50.952 25.2 56.53 33.331 60.461c3.107 1.472 7.253 3.215 11.887 3.512.283.013.58.027.85.027 3.12 0 5.741-1.121 7.794-3.35.014-.027.041-.04.055-.067.702-.852 1.512-1.621 2.363-2.445a53.121 53.121 0 0 0 1.756-1.743c1.338-1.391 2.04-3.012 2.04-4.674 0-1.674-.716-3.282-2.08-4.633l-7.416-7.442Zm4.836 14.223c-.014 0-.014.014 0 0-.527.568-1.067 1.08-1.648 1.648-.878.838-1.77 1.716-2.607 2.702-1.364 1.459-2.972 2.147-5.079 2.147-.203 0-.419 0-.621-.013-4.012-.257-7.74-1.824-10.536-3.16-7.645-3.702-14.359-8.956-19.937-15.616-4.607-5.551-7.686-10.684-9.726-16.195-1.256-3.364-1.715-5.984-1.513-8.456.135-1.58.743-2.89 1.864-4.012l4.606-4.606c.662-.621 1.365-.96 2.054-.96.85 0 1.54.514 1.972.946l.04.041a67.41 67.41 0 0 1 2.431 2.418c.42.432.851.864 1.284 1.31l3.687 3.688c1.432 1.432 1.432 2.755 0 4.187-.391.392-.77.784-1.161 1.162-1.135 1.161-2.216 2.242-3.39 3.295-.028.028-.055.041-.068.068-1.162 1.162-.946 2.296-.703 3.066l.04.122c.96 2.323 2.31 4.511 4.364 7.118l.013.014c3.728 4.593 7.66 8.172 11.995 10.914.554.351 1.121.635 1.661.905.487.243.946.473 1.338.716.054.027.108.068.162.095.46.23.891.337 1.337.337 1.121 0 1.824-.702 2.053-.932l4.62-4.62c.46-.459 1.189-1.013 2.04-1.013.837 0 1.526.527 1.945.987l.027.027 7.442 7.442c1.392 1.378 1.392 2.796.014 4.228ZM34.587 15.224c3.54.594 6.754 2.27 9.32 4.836a17.219 17.219 0 0 1 4.836 9.32 1.812 1.812 0 0 0 1.797 1.513c.108 0 .202-.014.31-.027a1.825 1.825 0 0 0 1.5-2.107c-.73-4.282-2.756-8.186-5.85-11.28a20.824 20.824 0 0 0-11.278-5.848c-1-.162-1.932.5-2.107 1.486-.176.986.473 1.945 1.472 2.107Zm29.339 13.008C62.723 21.18 59.4 14.765 54.295 9.659S42.773 1.23 35.722.028c-.986-.176-1.918.5-2.094 1.486-.162 1 .5 1.931 1.5 2.107 6.294 1.067 12.035 4.052 16.6 8.604 4.566 4.566 7.538 10.307 8.605 16.601a1.812 1.812 0 0 0 1.796 1.513c.108 0 .203-.014.31-.027a1.79 1.79 0 0 0 1.487-2.08Z"/></g><defs><clipPath id="ia"><path fill="#fff" d="M0 0h64v64H0z"/></clipPath></defs></svg><svg fill="none" viewBox="0 0 18 18" id="phone-black" xmlns="http://www.w3.org/2000/svg"><path fill="#000" d="M.767 5.508a15.4 15.4 0 0 0 11.725 11.725 3.716 3.716 0 0 0 4.283-2.541l.425-1.334-4.167-2.075-1.983 1.984a12.5 12.5 0 0 1-3.792-2.542 12.5 12.5 0 0 1-2.5-3.792L6.717 4.95 4.642.783l-1.334.425a3.717 3.717 0 0 0-2.541 4.3Z"/></svg><svg fill="none" viewBox="0 0 48 48" id="place" xmlns="http://www.w3.org/2000/svg"><g clip-path="url(#ja)" fill="#000"><path d="M41.889 46.31 35.56 32.923a1.185 1.185 0 0 0-.608-.584l-3.148-1.401 5.455-9.143a14.77 14.77 0 0 0 1.672-6.865c0-4.027-1.58-7.803-4.448-10.631A14.825 14.825 0 0 0 23.79 0c-3.914.055-7.6 1.627-10.377 4.427-2.778 2.8-4.32 6.498-4.343 10.413a14.973 14.973 0 0 0 1.67 6.955l5.456 9.143-3.167 1.409c-.259.115-.468.32-.589.575L6.111 46.31a1.184 1.184 0 0 0 1.553 1.589l7.927-3.53 7.927 3.53c.307.136.657.136.964 0l7.927-3.53 7.928 3.53a1.183 1.183 0 0 0 1.552-1.589ZM12.794 20.615a12.423 12.423 0 0 1-1.356-5.761c.04-6.79 5.595-12.391 12.384-12.485a12.483 12.483 0 0 1 8.999 3.616 12.472 12.472 0 0 1 3.742 8.945 12.42 12.42 0 0 1-1.357 5.685L25.017 37.693A1.166 1.166 0 0 1 24 38.27c-.202 0-.706-.056-1.017-.578L12.794 20.617ZM32.891 41.99a1.185 1.185 0 0 0-.964 0L24 45.52l-7.927-3.53a1.185 1.185 0 0 0-.964 0l-5.492 2.445 4.776-10.102 3.024-1.346 3.531 5.92A3.524 3.524 0 0 0 24 40.638a3.524 3.524 0 0 0 3.051-1.733l3.531-5.919 3.025 1.347 4.775 10.1-5.491-2.444Z"/><path d="M24 9.526a5.412 5.412 0 0 0-5.405 5.405A5.412 5.412 0 0 0 24 20.337a5.411 5.411 0 0 0 5.406-5.406A5.412 5.412 0 0 0 24 9.526Zm0 8.442a3.04 3.04 0 0 1-3.037-3.037A3.04 3.04 0 0 1 24 11.894a3.04 3.04 0 0 1 3.037 3.037A3.04 3.04 0 0 1 24 17.968Z"/></g><defs><clipPath id="ja"><path fill="#fff" d="M0 0h48v48H0z"/></clipPath></defs></svg><svg fill="none" viewBox="0 0 48 48" id="ruble" xmlns="http://www.w3.org/2000/svg"><g clip-path="url(#ka)"><g clip-path="url(#kb)" fill="#000"><path d="M28.364 13.09h-7.637c-.602 0-1.09.49-1.09 1.092v14.182h-5.455a1.091 1.091 0 0 0 0 2.181h5.454v3.273a1.091 1.091 0 0 0 2.182 0v-3.272h5.455a1.091 1.091 0 0 0 0-2.182h-5.455v-2.182h6.546a6.553 6.553 0 0 0 6.545-6.546 6.553 6.553 0 0 0-6.545-6.545Zm0 10.91h-6.546v-8.727h6.546a4.368 4.368 0 0 1 4.363 4.363A4.368 4.368 0 0 1 28.364 24Z"/><path d="M24 0C10.767 0 0 10.767 0 24s10.767 24 24 24 24-10.767 24-24S37.233 0 24 0Zm0 45.818C11.97 45.818 2.182 36.031 2.182 24 2.182 11.97 11.969 2.182 24 2.182c12.03 0 21.818 9.787 21.818 21.818 0 12.03-9.787 21.818-21.818 21.818Z"/></g></g><defs><clipPath id="ka"><path fill="#fff" d="M0 0h48v48H0z"/></clipPath><clipPath id="kb"><path fill="#fff" d="M0 0h48v48H0z"/></clipPath></defs></svg><svg fill="none" viewBox="0 0 48 49" id="shield" xmlns="http://www.w3.org/2000/svg"><g clip-path="url(#la)" fill="#000"><path d="M23.99 27.335a.94.94 0 1 0 0-1.88.94.94 0 0 0 0 1.88Z"/><path d="M23.454 47.825a.938.938 0 0 0 1.092 0c9.57-6.836 19.18-9.836 19.18-23.902V6.509a.94.94 0 0 0-.861-.937l-2.442-.204C34.826 4.902 29.32 3.062 24.498.048a.94.94 0 0 0-.996 0c-4.821 3.014-10.328 4.854-15.926 5.32l-2.44.204a.94.94 0 0 0-.862.937v17.414c0 14.463 10.959 18.03 19.18 23.902ZM6.153 7.373l1.58-.132C13.435 6.765 19.046 4.938 24 1.948c4.953 2.99 10.565 4.817 16.267 5.293l1.58.132v16.55c0 12.683-8.451 15.405-17.849 21.988-8.247-5.725-17.845-8.974-17.845-21.988V7.373Z"/><path d="M23.453 40.997a.932.932 0 0 0 1.094-.024c8.504-5.886 13.543-7.823 13.543-17.049v-12.32a.94.94 0 0 0-.8-.93 41.388 41.388 0 0 1-12.86-4.158.956.956 0 0 0-.902.021 41.362 41.362 0 0 1-12.818 4.138.94.94 0 0 0-.8.929v12.32c0 9.313 5.519 11.599 13.543 17.073ZM11.789 12.405a43.21 43.21 0 0 0 11.262-3.54v13.773a.94.94 0 1 0 1.879 0V8.857a43.246 43.246 0 0 0 11.281 3.548v11.519c0 7.636-3.576 9.3-11.281 14.511v-8.282a.94.94 0 1 0-1.879 0v8.31c-7.199-4.793-11.262-6.84-11.262-14.539v-11.52Z"/></g><defs><clipPath id="la"><path fill="#fff" d="M0 0h48v48.094H0z"/></clipPath></defs></svg><svg viewBox="0 0 24 24" id="user" xmlns="http://www.w3.org/2000/svg"><path d="M12 10a4 4 0 1 0 0-8 4 4 0 0 0 0 8Zm7.71 6.2a10.92 10.92 0 0 0-15.42 0l-.29.3V21h16v-4.5l-.29-.3Z"/></svg><svg fill="none" viewBox="0 0 48 48" id="way" xmlns="http://www.w3.org/2000/svg"><path fill="#000" fill-rule="evenodd" d="M15.229 7.629a3.854 3.854 0 0 0-3.85-3.85 3.854 3.854 0 0 0-3.85 3.85 3.854 3.854 0 0 0 3.85 3.85 3.854 3.854 0 0 0 3.85-3.85Zm-5.825 0c0-1.09.886-1.975 1.975-1.975s1.975.886 1.975 1.975a1.977 1.977 0 0 1-1.975 1.974A1.977 1.977 0 0 1 9.404 7.63Zm27.849 16.934c-2.416 0-4.47.602-5.71 1.559l-3.363-.75a.938.938 0 0 0-.407 1.83l2.577.575c-.048.187-.074.38-.074.576 0 1.274 1.043 2.362 2.713 3.042l-1.501 1.544a.938.938 0 0 0 1.345 1.307l2.217-2.282c.687.116 1.426.18 2.203.18 3.977 0 6.976-1.63 6.976-3.79 0-2.162-3-3.791-6.976-3.791Zm0 5.705c-3.067 0-5.102-1.152-5.102-1.915 0-.16.09-.336.26-.516a.814.814 0 0 0 .081-.08c.7-.655 2.432-1.32 4.76-1.32 3.067 0 5.102 1.154 5.102 1.916 0 .763-2.035 1.915-5.101 1.915Zm-11.148 10.9 1.5-1.544a.938.938 0 0 0-1.344-1.307l-2.218 2.282a13.246 13.246 0 0 0-2.202-.18c-3.977 0-6.977 1.63-6.977 3.79 0 2.161 3 3.791 6.977 3.791 3.977 0 6.976-1.63 6.976-3.79 0-1.274-1.043-2.362-2.712-3.042Zm-4.264 4.957c-3.067 0-5.102-1.153-5.102-1.915 0-.763 2.035-1.916 5.102-1.916 3.066 0 5.101 1.153 5.101 1.916 0 .762-2.035 1.915-5.101 1.915Z" clip-rule="evenodd"/><path fill="#000" fill-rule="evenodd" d="M20.451 25.573a.935.935 0 0 0 1.119-.712.937.937 0 0 0-.711-1.118l-2.578-.575a2.27 2.27 0 0 0 .074-.576c0-1.757-1.954-2.943-4.193-3.477l4.184-8.378.02-.042c.425-.97.641-2 .641-3.066C19.007 3.422 15.585 0 11.378 0 7.173 0 3.75 3.422 3.75 7.629a7.573 7.573 0 0 0 .662 3.108l4.187 8.386c-2.244.547-4.197 1.734-4.197 3.47 0 2.16 3 3.79 6.977 3.79 2.415 0 4.47-.603 5.71-1.559l3.362.748ZM5.625 7.629a5.76 5.76 0 0 1 5.754-5.754 5.76 5.76 0 0 1 5.278 8.045L11.38 20.494 6.1 9.92a5.707 5.707 0 0 1-.475-2.291Zm.652 14.963c0-.492 1.221-1.348 3.185-1.74l1.078 2.159a.937.937 0 0 0 1.678 0l1.08-2.164c1.986.376 3.182 1.23 3.182 1.745 0 .16-.091.337-.26.517a.915.915 0 0 0-.081.08c-.7.654-2.432 1.318-4.76 1.318-3.067 0-5.102-1.152-5.102-1.915Zm23.27 12.752a.94.94 0 0 0-.938.938.94.94 0 0 0 .938.937.94.94 0 0 0 .937-.937.94.94 0 0 0-.937-.938Zm-5.231-8.934a.94.94 0 0 0 .937-.938.94.94 0 0 0-.937-.937.94.94 0 0 0-.938.938.94.94 0 0 0 .938.937Z" clip-rule="evenodd"/></svg></svg>